# xmcd
#
# Track frame offsets: 
#        180
#        19593
#        41602
#        58172
#        76280
#        94180
#        111023
#        123744
#        143107
#        160121
#        175884
#        196509
#        211001
#
# Disc length: 3055 seconds
#
# Revision: 8
# Processed by: cddbd v1.5.2PL0 Copyright (c) Steve Scherf et al.
# Submitted via: ExactAudioCopy v1.0b6
#
DISCID=a50bed0d
DTITLE=Gian and Giovani - Meu Brasil
DYEAR=1998
DGENRE=Country
TTITLE0=Quem será
TTITLE1=Amor de verdade
TTITLE2=1.000 corações
TTITLE3=Alô
TTITLE4=Procurando amor
TTITLE5=Sempre vou te amar
TTITLE6=Caí no laço
TTITLE7=O grande amor da minha vida
TTITLE8=Por telefone
TTITLE9=Se você  me provocar
TTITLE10=Interior
TTITLE11=Pra te ver rebolar
TTITLE12=Meu Brasil
EXTD=
EXTT0=
EXTT1=
EXTT2=
EXTT3=
EXTT4=
EXTT5=
EXTT6=
EXTT7=
EXTT8=
EXTT9=
EXTT10=
EXTT11=
EXTT12=
PLAYORDER=
